<svg width="21" height="19" viewBox="0 0 21 19" fill="none" xmlns="http://www.w3.org/2000/svg">
    <path d="M0.661743 15.7357C2.88174 14.7357 5.10174 13.7357 7.33174 13.7357C9.55174 13.7357 11.7717 15.7357 13.9917 15.7357C16.2217 15.7357 18.4417 13.7357 20.6617 13.7357V16.7357C18.4417 16.7357 16.2217 18.7357 13.9917 18.7357C11.7717 18.7357 9.55174 16.7357 7.33174 16.7357C5.10174 16.7357 2.88174 17.7357 0.661743 18.7357V15.7357ZM7.33174 10.7357C6.55174 10.7357 5.78174 10.8557 5.01174 11.0557L9.93174 7.61567L8.89174 6.37567C8.75174 6.20567 8.66174 5.97567 8.66174 5.73567C8.66174 5.39567 8.83174 5.08567 9.10174 4.90567L14.8217 0.90567L15.9717 2.53567L11.1317 5.92567L16.3617 12.1557C15.5717 12.4857 14.7817 12.7357 13.9917 12.7357C11.7717 12.7357 9.55174 10.7357 7.33174 10.7357ZM16.6617 4.73567C17.1922 4.73567 17.7009 4.94638 18.076 5.32146C18.451 5.69653 18.6617 6.20524 18.6617 6.73567C18.6617 7.2661 18.451 7.77481 18.076 8.14988C17.7009 8.52496 17.1922 8.73567 16.6617 8.73567C16.1313 8.73567 15.6226 8.52496 15.2475 8.14988C14.8725 7.77481 14.6617 7.2661 14.6617 6.73567C14.6617 6.20524 14.8725 5.69653 15.2475 5.32146C15.6226 4.94638 16.1313 4.73567 16.6617 4.73567Z" fill="white"/>
</svg>